<svg xmlns="http://www.w3.org/2000/svg" viewBox="0 0 512 512"><title>File_Import</title><g id="File_Import" data-name="File Import"><g id="File_Import-2" data-name="File Import"><path d="M256,73.8206c-100.6127,0-182.1788,81.5706-182.1788,182.18S155.3868,438.1794,256,438.1794c100.6092,0,182.18-81.5706,182.18-182.179S356.6087,73.8206,256,73.8206ZM208.5965,201.78a12.8955,12.8955,0,0,1,18.2412,0l16.15,16.1459V149.7051a12.9,12.9,0,1,1,25.8,0v69.0993l5.6213-5.625h0L285.8084,201.78a12.8864,12.8864,0,0,1,21.8008,11.3994h0v.009c-.0523.29-.145.5715-.22.8522a12.8439,12.8439,0,0,1-.3869,1.3186c-.1054.2816-.2287.5715-.36.8612a12.461,12.461,0,0,1-.6948,1.31c-.1314.22-.2547.4481-.4086.66a12.4506,12.4506,0,0,1-1.49,1.8279l-18.36,18.36L265.545,258.5313a12.8769,12.8769,0,0,1-9.1233,3.7619h-.1846a12.8689,12.8689,0,0,1-9.1233-3.7619l-20.1482-20.1537-18.361-18.36a11.8236,11.8236,0,0,1-1.4805-1.819c-.1584-.22-.2817-.4482-.4221-.6767a14.2808,14.2808,0,0,1-.6858-1.3015c-.1314-.29-.2547-.58-.36-.8784a12.0889,12.0889,0,0,1-.3826-1.2743c-.0747-.2988-.1754-.59-.2241-.8883h0A12.8223,12.8223,0,0,1,208.5965,201.78ZM355.0743,328.0436c0,17.4115-17.0722,31.0518-38.8738,31.0518H195.8039c-21.7971,0-38.8746-13.64-38.8746-31.0518V244.24c0-14.7212,12.2167-26.71,29.1583-30.0851a31.5458,31.5458,0,0,0,9.1493,19.2393l4.9879,4.9923h-4.4209c-8.8245,0-13.6719,4.3947-13.6719,5.8535v83.8035c0,1.4509,4.8474,5.8536,13.6719,5.8536H316.205c8.8245,0,13.6755-4.4027,13.6755-5.8536V244.24c0-1.4588-4.851-5.8535-13.6755-5.8535h-3.7881l4.9924-4.9923a31.5379,31.5379,0,0,0,9.1269-19.107c16.6158,3.5414,28.5425,15.416,28.5425,29.9528v83.8035Z"/></g></g></svg>