<?xml version="1.0" encoding="UTF-8" standalone="no"?>
<svg
   version="1.1"
   width="407"
   height="450"
   id="svg24"
   sodipodi:docname="fox.svg"
   inkscape:version="1.4 (86a8ad7, 2024-10-11)"
   inkscape:export-filename="fox.png"
   inkscape:export-xdpi="96"
   inkscape:export-ydpi="96"
   xmlns:inkscape="http://www.inkscape.org/namespaces/inkscape"
   xmlns:sodipodi="http://sodipodi.sourceforge.net/DTD/sodipodi-0.dtd"
   xmlns="http://www.w3.org/2000/svg"
   xmlns:svg="http://www.w3.org/2000/svg">
  <defs
     id="defs24">
    <inkscape:path-effect
       effect="fillet_chamfer"
       id="path-effect27"
       is_visible="true"
       lpeversion="1"
       nodesatellites_param="F,0,0,1,0,0,0,1 @ F,0,0,1,0,0,0,1 @ F,0,0,1,0,0,0,1 @ F,0,0,1,0,0,0,1 @ F,0,0,1,0,0,0,1 @ F,0,0,1,0,0,0,1 @ F,0,0,1,0,0,0,1 @ F,0,0,1,0,0,0,1 @ F,0,0,1,0,0,0,1 @ F,0,0,1,0,0,0,1 @ F,0,0,1,0,0,0,1 @ F,0,0,1,0,0,0,1 @ F,0,0,1,0,0,0,1 @ F,0,0,1,0,0,0,1 @ F,0,0,1,0,0,0,1 @ F,0,0,1,0,0,0,1 @ F,0,0,1,0,0,0,1 @ F,0,0,1,0,0,0,1 @ F,0,0,1,0,0,0,1 @ F,0,0,1,0,0,0,1 @ F,0,0,1,0,0,0,1 @ F,0,0,1,0,0,0,1 @ F,0,0,1,0,2.9194692,0,1 | F,0,0,1,0,0,0,1 @ F,0,0,1,0,0,0,1 @ F,0,0,1,0,0,0,1 @ F,0,0,1,0,16.896021,0,1 @ F,0,0,1,0,0,0,1 @ F,0,0,1,0,0,0,1 @ F,0,0,1,0,0,0,1 @ F,0,0,1,0,0,0,1 @ F,0,0,1,0,0,0,1 @ F,0,0,1,0,0,0,1 @ F,0,0,1,0,0,0,1 @ F,0,0,1,0,0,0,1 @ F,0,0,1,0,0,0,1 @ F,0,0,1,0,0,0,1 @ F,0,0,1,0,0,0,1 @ F,0,0,1,0,0,0,1 @ F,0,0,1,0,0,0,1 @ F,0,0,1,0,0,0,1 @ F,0,0,1,0,0,0,1 @ F,0,0,1,0,0,0,1 @ F,0,0,1,0,0,0,1 @ F,0,0,1,0,0,0,1 @ F,0,0,1,0,0,0,1"
       radius="0"
       unit="px"
       method="auto"
       mode="F"
       chamfer_steps="1"
       flexible="false"
       use_knot_distance="true"
       apply_no_radius="true"
       apply_with_radius="true"
       only_selected="false"
       hide_knots="false" />
  </defs>
  <sodipodi:namedview
     id="namedview24"
     pagecolor="#ffffff"
     bordercolor="#000000"
     borderopacity="0.25"
     inkscape:showpageshadow="2"
     inkscape:pageopacity="0.0"
     inkscape:pagecheckerboard="0"
     inkscape:deskcolor="#d1d1d1"
     showgrid="false"
     inkscape:zoom="0.5"
     inkscape:cx="767"
     inkscape:cy="57"
     inkscape:window-width="2028"
     inkscape:window-height="1401"
     inkscape:window-x="1920"
     inkscape:window-y="0"
     inkscape:window-maximized="0"
     inkscape:current-layer="layer2">
    <inkscape:grid
       id="grid24"
       units="px"
       originx="0"
       originy="0"
       spacingx="1"
       spacingy="1"
       empcolor="#0099e5"
       empopacity="0.30196078"
       color="#0099e5"
       opacity="0.14901961"
       empspacing="5"
       enabled="true"
       visible="false" />
  </sodipodi:namedview>
  <path
     d="m 132.95933,101.24136 c 6.19966,9.03081 6.10614,-10.985251 16.56662,-4.276887 0.58637,7.018267 26.59289,-11.439573 34.7508,-8.896599 -0.70928,-10.48161 -21.63163,-47.949619 -13.62015,-52.926572 13.39632,-10.90522 45.92638,26.925949 55.7821,33.296034 34.68852,15.865032 14.5587,6.589296 44.18322,30.401168 7.83748,8.656336 4.17626,11.466936 21.21826,35.968096 6.59742,9.07101 7.52874,22.12415 10.78945,39.9915 8.30098,8.11695 16.18674,28.38571 21.57912,42.44606 13.9002,22.22347 1.67972,29.65825 25.56671,43.82528 12.2558,10.68801 35.43144,18.62616 17.74524,29.99375 -10.25055,12.41982 -69.72753,13.73775 -64.53453,46.71059 -41.66365,26.37179 -33.10522,67.2301 -81.23842,42.26829 4.35845,7.07856 -61.15484,-53.07233 -77.26547,-49.68891 -30.02556,5.71291 -73.734844,24.5281 -95.188009,0.45818 -15.162839,-15.94033 -33.878845,-16.12315 -22.16265,-38.40596 9.617353,-9.17624 -4.700531,-11.93687 3.947856,-19.26191 8.3198,-2.3556 47.843751,-27.58325 42.377669,-36.74559 -10.113323,-36.26602 -12.982289,-34.54035 8.279841,-65.54282 2.604287,-15.64136 11.339973,-16.00157 14.471294,-29.13174 -4.420604,-26.25183 9.467539,2.31355 17.308959,-21.83318 4.20054,-16.10869 7.2678,-27.200386 19.44209,-18.64878 z"
     fill="#FD6A01"
     id="path1"
     inkscape:label="path1"
     style="color:#000000;font-style:normal;font-variant:normal;font-weight:normal;font-stretch:normal;font-size:medium;line-height:normal;font-family:sans-serif;font-variant-ligatures:normal;font-variant-position:normal;font-variant-caps:normal;font-variant-numeric:normal;font-variant-alternates:normal;font-variant-east-asian:normal;font-feature-settings:normal;font-variation-settings:normal;text-indent:0;text-align:start;text-decoration-line:none;text-decoration-style:solid;text-decoration-color:#000000;letter-spacing:normal;word-spacing:normal;text-transform:none;writing-mode:lr-tb;direction:ltr;text-orientation:mixed;dominant-baseline:auto;baseline-shift:baseline;text-anchor:start;white-space:normal;shape-padding:0;shape-margin:0;inline-size:0;clip-rule:nonzero;display:inline;overflow:visible;visibility:visible;isolation:auto;mix-blend-mode:normal;color-interpolation:sRGB;color-interpolation-filters:linearRGB;solid-color:#000000;solid-opacity:1;vector-effect:none;fill:#fd6a01;fill-opacity:1;fill-rule:nonzero;stroke:none;stroke-linecap:butt;stroke-linejoin:miter;stroke-miterlimit:4;stroke-dasharray:none;stroke-dashoffset:0;stroke-opacity:1;-inkscape-stroke:none;color-rendering:auto;image-rendering:auto;shape-rendering:auto;text-rendering:auto;enable-background:accumulate;stop-color:#000000;stop-opacity:1"
     sodipodi:nodetypes="cccccccccccccccccccccc" />
  <path
     d="m 123,26 c 4.59054,3.168429 13.92542,10.836656 20,15 -0.70928,-10.48161 0.75623,-25.326189 8.76771,-30.303142 13.39632,-10.90522 34.5797,4.280713 44.43542,10.650798 C 228.6001,41.468423 261.37548,61.188128 291,85 c 7.83748,8.656334 22.62033,18.73635 31.88455,29.90417 56.25899,66.51767 47.30988,122.14585 63.92795,141.72083 l 19.76592,21.23128 c -20.2222,15.93922 -59.00587,46.18093 -48.77464,49.68591 l 10.04542,5.48304 c -31.2927,18.33999 -58.13053,30.1233 -83.87208,55.50688 -12.7756,14.86064 -37.75984,60.90905 -37.75984,60.90905 l -14.84827,-12.07841 c 0,0 -17.4329,-17.79 -28.46667,-24.88619 C 186.61089,400.35399 172.33051,390.24062 155.45145,380.04207 144.25435,373.04656 129.11063,356.61658 113,360 82.974449,365.71291 47.414103,362.28867 25.960938,338.21875 10.798099,322.27842 -7.917907,296.91041 3.798288,274.6276 c 7.557168,-9.75494 19.680368,-12.75338 28.328755,-20.07842 6.514244,-4.8556 11.558397,-7.03135 9.379352,-16.84184 C 31.393072,201.44132 60.851287,129.5 60.851287,129.5 l 3.909022,-14.25526 c 0,0 -14.600395,-71.743102 -11.417423,-100.337028 0.178333,-1.602036 0.715272,-4.165743 1.280868,-5.6748987 C 59.206563,-2.9952824 72.419009,-6.4378706 123,26 Z m 47,11 c 0.0469,39.045684 28.23834,118.35296 28.23834,118.35296 l 1.03962,18.77472 c 0,0 -13.60672,-8.50591 -27.9624,-26.48186 -5.8197,-7.28733 -12.74518,-20.73667 -15.80646,-29.55099 C 153.90581,113.47849 152.0132,107.31941 149,96.358412 150.52873,79.010061 125.48907,105.18205 117.54304,107.75213 87.116799,130.37093 60.902586,165.36092 63,205 c 17.168224,3.02195 21.151235,30.70891 8.309149,40.74209 C 59.688276,259.64837 41.143845,269.1567 31,282.42773 c 15.020905,-1.70107 38.23553,6.88169 27.377152,26.10156 -7.130826,8.53996 -23.869899,6.83526 -7.573959,17.09417 22.222192,16.22359 51.084897,10.01647 76.280137,7.15873 35.85993,0.44025 60.15836,29.99423 89.73718,45.78912 17.76772,6.93842 -17.59214,-20.48829 -14.78841,-32.11603 5.7531,-7.27631 31.63416,23.14186 35.19572,13.83982 -4.99563,-9.0714 -22.29514,-24.4259 -1.19801,-14.38852 19.2132,3.91303 50.98336,0.39022 61.98062,-7.51496 -10.23654,-4.73148 -31.34252,-8.82023 -34.89349,-12.67946 22.56474,-2.21204 45.43881,-6.85633 63.86093,-20.98452 9.77246,-12.87559 31.87553,-30.08242 22.362,-46.8418 -3.52889,-15.59251 -16.68005,-5.06188 -2.96197,-29.56916 C 343.14224,185.52572 319.05356,146.38088 288.02344,117.6875 275.06187,106.61004 260.84287,92.54397 245.32273,81.875648 221.14826,65.625891 197.13653,47.718825 170,37 Z"
     fill="#010101"
     id="path2"
     sodipodi:nodetypes="cccccccccccccccccccccccccccccccccccccccccccccccc"
     inkscape:path-effect="#path-effect27"
     inkscape:original-d="m 123,26 c 4.59054,3.168429 13.92542,10.836656 20,15 -0.70928,-10.48161 0.75623,-25.326189 8.76771,-30.303142 13.39632,-10.90522 34.5797,4.280713 44.43542,10.650798 C 228.6001,41.468423 261.37548,61.188128 291,85 c 7.83748,8.656334 22.62033,18.73635 31.88455,29.90417 56.25899,66.51767 47.30988,122.14585 63.92795,141.72083 l 19.76592,21.23128 c -20.2222,15.93922 -59.00587,46.18093 -48.77464,49.68591 l 10.04542,5.48304 c -31.2927,18.33999 -58.13053,30.1233 -83.87208,55.50688 -12.7756,14.86064 -37.75984,60.90905 -37.75984,60.90905 l -14.84827,-12.07841 c 0,0 -17.4329,-17.79 -28.46667,-24.88619 C 186.61089,400.35399 172.33051,390.24062 155.45145,380.04207 144.25435,373.04656 129.11063,356.61658 113,360 82.974449,365.71291 47.414103,362.28867 25.960938,338.21875 10.798099,322.27842 -7.917907,296.91041 3.798288,274.6276 c 7.557168,-9.75494 19.680368,-12.75338 28.328755,-20.07842 6.514244,-4.8556 11.558397,-7.03135 9.379352,-16.84184 C 31.393072,201.44132 60.851287,129.5 60.851287,129.5 l 3.909022,-14.25526 c 0,0 -15.660488,-76.952166 -11.007497,-103.226757 C 57.488567,-2.3083103 68.755235,-8.7874695 123,26 Z m 47,11 c 0.0469,39.045684 28.23834,118.35296 28.23834,118.35296 l 1.03962,18.77472 c 0,0 -20.51156,-12.82231 -37.73709,-40.25136 C 156.84694,121.35405 155.66388,120.59937 149,96.358412 150.52873,79.010061 125.48907,105.18205 117.54304,107.75213 87.116799,130.37093 60.902586,165.36092 63,205 c 17.168224,3.02195 21.151235,30.70891 8.309149,40.74209 C 59.688276,259.64837 41.143845,269.1567 31,282.42773 c 15.020905,-1.70107 38.23553,6.88169 27.377152,26.10156 -7.130826,8.53996 -23.869899,6.83526 -7.573959,17.09417 22.222192,16.22359 51.084897,10.01647 76.280137,7.15873 35.85993,0.44025 60.15836,29.99423 89.73718,45.78912 17.76772,6.93842 -17.59214,-20.48829 -14.78841,-32.11603 5.7531,-7.27631 31.63416,23.14186 35.19572,13.83982 -4.99563,-9.0714 -22.29514,-24.4259 -1.19801,-14.38852 19.2132,3.91303 50.98336,0.39022 61.98062,-7.51496 -10.23654,-4.73148 -31.34252,-8.82023 -34.89349,-12.67946 22.56474,-2.21204 45.43881,-6.85633 63.86093,-20.98452 9.77246,-12.87559 31.87553,-30.08242 22.362,-46.8418 -3.52889,-15.59251 -16.68005,-5.06188 -2.96197,-29.56916 C 343.14224,185.52572 319.05356,146.38088 288.02344,117.6875 275.06187,106.61004 260.84287,92.54397 245.32273,81.875648 221.14826,65.625891 197.13653,47.718825 170,37 Z" />
  <path
     d="m 301,266 c 39.94564,11.6885 -14.90038,16.84783 -12.62036,25.98984 15.14307,5.93778 31.68978,4.7664 47.62036,5.01016 -7.70338,11.51579 -21.00079,16.27632 -33.12189,21.41489 -13.23772,4.4386 -24.8583,5.9547 -38.69061,7.58511 13,4.33333 23.87316,7.95956 35.8125,13 -14.97833,6.08417 -30.85542,8.37415 -46.82191,9.8636 -8.48955,1.6418 -21.57143,-4.43378 -26.61524,-4.41515 0.65853,5.65336 22.74405,22.7169 13.72431,24.58532 -11.24647,-3.24791 -26.67143,-23.91916 -37.78243,-23.27576 2.16492,10.21195 23.26419,31.99697 23.26419,31.99697 l -2.38057,5.39133 c 0,0 -53.04216,-37.89419 -78.71575,-47.07247 -22.62939,-7.50524 -46.085637,4.8109 -68.905137,-0.5503 -13.250242,-2.2459 -27.125267,-8.1248 -35.187403,-19.31053 9.750997,-3.0594 18.99169,-9.1112 25.730607,-14.47284 13.098138,-1.39891 26.542747,-0.57812 38.987343,-5.80769 18.07987,-5.84211 37.8638,-11.84601 56.5837,-5.06755 15.36389,4.35335 28.50464,-5.39847 39.90325,-14.1269 C 231.30894,258.13755 268.07283,257.27798 301,266 Z"
     fill="#fefefe"
     id="path3"
     sodipodi:nodetypes="cccccccccccccccccccc" />
  <path
     d="M 0.2618914,-0.32736425 C 5.7300049,3.55402 46.697188,33.96912 65.392837,86.672636 79.887458,124.09383 68.581143,129.71205 77.949873,156.16538 l 0.691393,3.78549 C 3.6850662,117.07563 6.7152441,111.57829 12.0625,104.1875 22.770092,88.201216 25.553051,69.242372 22.316406,50.375 18.913875,33.859635 11.636701,19.397748 2.453125,5.3828125 1,3 1.2618914,2.6726357 0.2618914,-0.32736425 Z"
     fill="#954701"
     id="path4"
     transform="translate(273,105)"
     sodipodi:nodetypes="cccccccc" />
  <path
     d="M -0.5850018,-0.09259259 C 22.954099,61.153643 71.346233,98.982252 87,163 82.823024,162.37599 79.565572,160.95684 75.808594,159.05078 58.263144,151.26878 41.717034,141.92093 28.237756,128.09429 24.945142,116.27432 10.653865,93.599945 3.3125,46.1875 -0.24481657,31.068905 -0.88071477,15.350196 -0.5850018,-0.09259259 Z"
     fill="#954701"
     id="path6"
     transform="translate(171,46)"
     sodipodi:nodetypes="cccccc" />
  <path
     d="m 0,0 c 9.2662028,4.9023598 18.275372,10.183581 27,16 0,0 4.30829,3.64649 8.855469,3.644531 3.518873,0.397786 3.84413,0.690799 6.03125,3.242188 0.952924,1.252452 1.886055,2.520165 2.800781,3.800781 l 1.431641,1.896484 C 47.449606,30.366024 48.730414,32.174284 50,34 l 1.894531,2.644531 C 53.304449,39.648703 53.10845,40.899271 52,44 50.582031,46.324219 50.582031,46.324219 48.8125,48.6875 45.22138,53.62158 42.06354,58.725774 39,64 35.19144,62.352065 32.188741,59.846731 29,57.25 15.15068,46.200248 0.47441885,36.487639 -14.708496,27.387207 -37.985328,13.296118 -37.985328,13.296118 -48,6 L -49,5.28125 -35,4 c 14.379231,6.823719 6.461746,5.2942581 58,36 L 21.058594,37.507812 C 5.9891248,12.333247 0.73912483,11.333247 0,0 Z"
     fill="#3c372f"
     id="path7"
     transform="translate(201,342)"
     sodipodi:nodetypes="ccccccccccccccccccc" />
  <path
     d="M 0,0 C 14.279828,5.1237751 47.692558,37.363337 50.604085,40.330442 40.887223,47.335349 19.238806,61.817014 8,69 0.03757316,39.013751 -0.21541357,29.014857 0,0 Z"
     fill="#934702"
     id="path9"
     transform="translate(78,32)"
     sodipodi:nodetypes="cccc" />
  <path
     d="M 0,0 C 1.066318,3.3411296 0.72371199,5.1493958 0.53240741,8.6064815 -3.4610703,12.238393 -17,20 -17,20 c -1.886331,1.52732 -3.784612,2.955921 -5.75,4.375 C -41.636849,38.5012 -55.30392,57.563653 -65,79 l -1.339844,2.84375 c -5.235723,12.60393 -6.400739,28.40791 -7.98752,41.85854 l -1.879252,-2.43352 C -79.701387,118.63837 -81.774677,117.12813 -86,116 c -0.471475,-9.37711 0.377079,-17.886379 3,-27 l 0.585938,-2.613281 C -78.043584,69.500779 -67.190135,54.001692 -56,41 l 2.222656,-2.597656 C -43.677473,26.877447 -17.152084,0 0,0 Z"
     fill="#fcfcfb"
     id="path10"
     transform="translate(149,89)"
     sodipodi:nodetypes="cccccccccccccc" />
  <g
     inkscape:groupmode="layer"
     id="layer2"
     inkscape:label="Eye">
    <path
       d="m 147.5,188 c -1.05875,3.40313 -2.00902,6.01353 -4,9 5.70898,-2.16503 22.7634,-7.14671 41.67578,1.59375 C 197.75032,205.47154 214.5,231 214.5,231 l -2.19531,-0.83984 c -8.72848,-3.70495 -17.88282,-1.47266 -17.88282,-1.47266 -0.6815,9.16927 -4.30461,16.05298 -11.08984,22.3125 -7.42314,8.56719 -18.63505,8.15126 -28.83203,5 -15.36475,-8.31807 -33.14223,-4.01113 -49,0 -4.00219,1.44811 -7.718,2.25951 -12,2 20.83677,-18.95172 31.08181,-61.18445 54,-70 z"
       fill="#954700"
       id="path5"
       sodipodi:nodetypes="ccccccccccc" />
    <ellipse
       style="fill:#000000;stroke:#000000;stroke-width:9.44882;stroke-opacity:1"
       id="path26"
       cx="163.47647"
       cy="229.93335"
       rx="19.87101"
       ry="19.445436" />
    <ellipse
       style="fill:#ffffff;stroke:#ffffff;stroke-width:7.63212;stroke-opacity:1"
       id="path25"
       cx="163.35187"
       cy="-231.81348"
       rx="10.306501"
       ry="8.6275177"
       transform="scale(1,-1)" />
  </g>
</svg>
